<svg xmlns="http://www.w3.org/2000/svg" height="35" viewBox="0 -960 960 960" width="35"><path id="sidebar-icon" d="M507.692-506.615q22.077-23.539 31.039-54.539 8.961-31 8.961-63.461 0-32.462-8.961-63.462-8.962-31-31.039-54.539 45.385 4.154 75 38 29.616 33.847 29.616 80.001 0 46.153-29.616 80-29.615 33.846-75 38Zm200 291.231v-67.693q0-29.42-10.615-55.979-10.615-26.559-33.539-43.867 41.001 12.615 74.885 36.115 33.885 23.5 33.885 63.731v67.693h-64.616ZM772.308-460v-80h-80v-40h80v-80h40v80h80v40h-80v80h-40Zm-424.616-44.615q-49.5 0-84.75-35.25t-35.25-84.75q0-49.501 35.25-84.751 35.25-35.25 84.75-35.25t84.75 35.25q35.25 35.25 35.25 84.751 0 49.5-35.25 84.75t-84.75 35.25Zm-280 289.231v-65.847q0-24.769 14.423-46.346 14.423-21.577 38.808-33.5 56.615-27.154 113.307-40.731 56.693-13.577 113.462-13.577 56.769 0 113.462 13.577 56.692 13.577 113.308 40.731 24.384 11.923 38.807 33.5 14.423 21.577 14.423 46.346v65.847h-560Zm280-329.231q33 0 56.5-23.5t23.5-56.5q0-33-23.5-56.5t-56.5-23.5q-33 0-56.5 23.5t-23.5 56.5q0 33 23.5 56.5t56.5 23.5Zm-240 289.23h480v-25.846q0-13.307-8.577-25-8.577-11.692-23.73-19.769Q506-349.923 453.549-362.654q-52.452-12.731-105.857-12.731t-105.856 12.731Q189.384-349.923 140-326q-15.154 8.077-23.731 19.769-8.577 11.693-8.577 25v25.846Zm240-369.23Zm0 369.23Z"/></svg>