<svg xmlns="http://www.w3.org/2000/svg" height="24" viewBox="0 -960 960 960" width="24"><path d="m360.923-110.769-66.769-112.615-127.077-27.385 12.461-131.077L93.846-480l85.692-98.154-12.461-131.077 127.077-27.385 66.769-112.615L480-798.923l119.077-50.308 66.769 112.615 127.077 27.385-12.461 131.077L866.154-480l-85.692 98.154 12.461 131.077-127.077 27.385-66.769 112.615L480-161.077l-119.077 50.308ZM378-162l102-42.462L582.462-162 640-258l110-24.462L740-396l74-84-74-84.462L750-678l-110-24-58-96-102 42.462L377.538-798 320-702l-110 24 10 113.538L146-480l74 84-10 114 110 24 58 96Zm102-318Zm-42 114.308L636.308-564 608-592.769l-170 170-86-85.539L323.692-480 438-365.692Z"/></svg>